HIERARCHY
ROOT newVegas:Hips
{
	OFFSET 0.000000 96.479958 0.000000
	CHANNELS 6 Xposition Yposition Zposition Xrotation Yrotation Zrotation
	JOINT newVegas:Pelvis
	{
		OFFSET 0.000000 0.000000 0.000000
		CHANNELS 3 Xrotation Yrotation Zrotation
		JOINT newVegas:LeftUpLeg
		{
			OFFSET 18.735201 -5.666702 -4.541200
			CHANNELS 3 Xrotation Yrotation Zrotation
			JOINT newVegas:LeftLeg
			{
				OFFSET -0.021200 -31.938179 0.493100
				CHANNELS 3 Xrotation Yrotation Zrotation
				JOINT newVegas:LeftFoot
				{
					OFFSET 0.021200 -31.938179 -4.336299
					CHANNELS 3 Xrotation Yrotation Zrotation
					JOINT newVegas:LeftToeBase
					{
						OFFSET 0.943001 -26.722000 15.023500
						CHANNELS 3 Xrotation Yrotation Zrotation
						End Site
						{
							OFFSET 0.000000 30.670183 0.000000
						}
					}
				}
				JOINT newVegas:Left_PantLeg
				{
					OFFSET 0.663870 -9.044666 -1.108900
					CHANNELS 3 Xrotation Yrotation Zrotation
					End Site
					{
						OFFSET 1.415995 20.635357 0.000000
					}
				}
			}
		}
		JOINT newVegas:RightUpLeg
		{
			OFFSET -18.735201 -5.666702 -4.541200
			CHANNELS 3 Xrotation Yrotation Zrotation
			JOINT newVegas:RightLeg
			{
				OFFSET 0.018946 -31.938133 0.493100
				CHANNELS 3 Xrotation Yrotation Zrotation
				JOINT newVegas:RightFoot
				{
					OFFSET -0.018946 -31.938126 -4.336299
					CHANNELS 3 Xrotation Yrotation Zrotation
					JOINT newVegas:RightToeBase
					{
						OFFSET -0.943001 -26.722004 15.023500
						CHANNELS 3 Xrotation Yrotation Zrotation
						End Site
						{
							OFFSET 0.000000 30.670187 0.000000
						}
					}
				}
				JOINT newVegas:Right_PantLeg
				{
					OFFSET -0.661674 -9.044716 -1.108900
					CHANNELS 3 Xrotation Yrotation Zrotation
					End Site
					{
						OFFSET -1.415958 20.635269 0.000000
					}
				}
			}
		}
	}
	JOINT newVegas:Spine
	{
		OFFSET 0.000000 10.199997 -0.299500
		CHANNELS 3 Xrotation Yrotation Zrotation
		JOINT newVegas:Spine1
		{
			OFFSET 0.000000 11.900002 -1.516600
			CHANNELS 3 Xrotation Yrotation Zrotation
			JOINT newVegas:Spine2
			{
				OFFSET 0.000000 13.600006 -2.842500
				CHANNELS 3 Xrotation Yrotation Zrotation
				JOINT newVegas:Neck
				{
					OFFSET 0.000000 9.624100 -2.890100
					CHANNELS 3 Xrotation Yrotation Zrotation
					JOINT newVegas:Head
					{
						OFFSET 0.000000 14.068802 -1.351900
						CHANNELS 3 Xrotation Yrotation Zrotation
						JOINT newVegas:Hair_Back
						{
							OFFSET 0.000000 3.231903 -17.524799
							CHANNELS 3 Xrotation Yrotation Zrotation
							End Site
							{
								OFFSET 0.000000 19.849884 0.000000
							}
						}
						JOINT newVegas:Hair_Front
						{
							OFFSET 0.000000 31.260406 4.573800
							CHANNELS 3 Xrotation Yrotation Zrotation
							JOINT newVegas:Hair_Front1
							{
								OFFSET 0.000000 2.284103 11.993300
								CHANNELS 3 Xrotation Yrotation Zrotation
								JOINT newVegas:Hair_Front2
								{
									OFFSET 0.000000 2.284103 11.993300
									CHANNELS 3 Xrotation Yrotation Zrotation
									End Site
									{
										OFFSET 0.000000 12.208862 0.000000
									}
								}
							}
						}
						JOINT newVegas:Jowel
						{
							OFFSET 0.000000 -7.458206 6.864100
							CHANNELS 3 Xrotation Yrotation Zrotation
							End Site
							{
								OFFSET 0.000000 19.849884 0.000000
							}
						}
					}
				}
				JOINT newVegas:LeftShoulder
				{
					OFFSET 15.263000 10.923401 -0.547700
					CHANNELS 3 Xrotation Yrotation Zrotation
					JOINT newVegas:LeftArm
					{
						OFFSET 25.438599 -2.830597 -13.032500
						CHANNELS 3 Xrotation Yrotation Zrotation
						JOINT newVegas:LeftForeArm
						{
							OFFSET 29.960503 0.000000 0.000000
							CHANNELS 3 Xrotation Yrotation Zrotation
							JOINT newVegas:LeftHand
							{
								OFFSET 27.849251 0.000000 0.000000
								CHANNELS 3 Xrotation Yrotation Zrotation
								JOINT newVegas:LeftHandThumb1
								{
									OFFSET 4.487587 -3.305161 6.305391
									CHANNELS 3 Xrotation Yrotation Zrotation
									JOINT newVegas:LeftHandThumb2
									{
										OFFSET 5.480453 -3.164139 3.164143
										CHANNELS 3 Xrotation Yrotation Zrotation
										JOINT newVegas:LeftHandThumb3
										{
											OFFSET 5.159721 -2.978973 2.978967
											CHANNELS 3 Xrotation Yrotation Zrotation
											End Site
											{
												OFFSET 2.494507 5.926697 1.738678
											}
										}
									}
								}
								JOINT newVegas:LeftHandIndex1
								{
									OFFSET 18.578728 -0.527832 5.208049
									CHANNELS 3 Xrotation Yrotation Zrotation
									JOINT newVegas:LeftHandIndex2
									{
										OFFSET 3.192009 0.000000 0.000000
										CHANNELS 3 Xrotation Yrotation Zrotation
										JOINT newVegas:LeftHandIndex3
										{
											OFFSET 3.835129 0.000000 0.000000
											CHANNELS 3 Xrotation Yrotation Zrotation
											End Site
											{
												OFFSET -0.034599 3.816971 0.371180
											}
										}
									}
								}
								JOINT newVegas:LeftHandMiddle1
								{
									OFFSET 18.476105 0.000000 0.000000
									CHANNELS 3 Xrotation Yrotation Zrotation
									JOINT newVegas:LeftHandMiddle2
									{
										OFFSET 3.324875 0.000000 0.000000
										CHANNELS 3 Xrotation Yrotation Zrotation
										JOINT newVegas:LeftHandMiddle3
										{
											OFFSET 4.596550 0.000000 0.000000
											CHANNELS 3 Xrotation Yrotation Zrotation
											End Site
											{
												OFFSET 0.057701 4.578827 0.399218
											}
										}
									}
								}
								JOINT newVegas:LeftHandRing1
								{
									OFFSET 17.732719 0.121887 -4.201567
									CHANNELS 3 Xrotation Yrotation Zrotation
									JOINT newVegas:LeftHandRing2
									{
										OFFSET 2.733170 0.000000 0.000000
										CHANNELS 3 Xrotation Yrotation Zrotation
										JOINT newVegas:LeftHandRing3
										{
											OFFSET 3.178268 0.000000 0.000000
											CHANNELS 3 Xrotation Yrotation Zrotation
											End Site
											{
												OFFSET 0.119102 3.170624 0.185394
											}
										}
									}
								}
								JOINT newVegas:LeftHandPinky1
								{
									OFFSET 15.989624 -0.606689 -7.535461
									CHANNELS 3 Xrotation Yrotation Zrotation
									JOINT newVegas:LeftHandPinky2
									{
										OFFSET 2.538986 0.000000 0.000000
										CHANNELS 3 Xrotation Yrotation Zrotation
										JOINT newVegas:LeftHandPinky3
										{
											OFFSET 2.593102 0.000000 0.000000
											CHANNELS 3 Xrotation Yrotation Zrotation
											End Site
											{
												OFFSET -0.150902 2.584198 0.152708
											}
										}
									}
								}
							}
							JOINT newVegas:Left_Sleeve
							{
								OFFSET 0.267448 -0.649796 0.577675
								CHANNELS 3 Xrotation Yrotation Zrotation
								End Site
								{
									OFFSET 0.000000 15.991241 0.000000
								}
							}
							JOINT newVegas:Left_CapeC
							{
								OFFSET 15.715958 -8.608795 -6.935905
								CHANNELS 3 Xrotation Yrotation Zrotation
								JOINT newVegas:Left_CapeC1
								{
									OFFSET 0.000000 -8.688499 0.000000
									CHANNELS 3 Xrotation Yrotation Zrotation
									End Site
									{
										OFFSET 0.000000 8.688499 0.000000
									}
								}
							}
						}
						JOINT newVegas:Left_CapeB
						{
							OFFSET 26.118385 -8.608795 -7.079235
							CHANNELS 3 Xrotation Yrotation Zrotation
							JOINT newVegas:Left_CapeB1
							{
								OFFSET 0.000000 -8.688499 0.000000
								CHANNELS 3 Xrotation Yrotation Zrotation
								End Site
								{
									OFFSET 0.000000 8.688499 0.000000
								}
							}
						}
						JOINT newVegas:Left_CapeA
						{
							OFFSET 5.115639 -8.608795 -10.395809
							CHANNELS 3 Xrotation Yrotation Zrotation
							JOINT newVegas:Left_CapeA1
							{
								OFFSET 0.000000 -8.688499 0.000000
								CHANNELS 3 Xrotation Yrotation Zrotation
								End Site
								{
									OFFSET 0.000000 8.688499 0.000000
								}
							}
						}
					}
				}
				JOINT newVegas:RightShoulder
				{
					OFFSET -15.263000 10.923401 -0.547700
					CHANNELS 3 Xrotation Yrotation Zrotation
					JOINT newVegas:RightArm
					{
						OFFSET -25.438599 -2.830597 -13.032500
						CHANNELS 3 Xrotation Yrotation Zrotation
						JOINT newVegas:RightForeArm
						{
							OFFSET -29.960503 0.000000 0.000000
							CHANNELS 3 Xrotation Yrotation Zrotation
							JOINT newVegas:RightHand
							{
								OFFSET -27.849251 0.000000 0.000000
								CHANNELS 3 Xrotation Yrotation Zrotation
								JOINT newVegas:RightHandThumb1
								{
									OFFSET -4.487587 -3.305161 6.305391
									CHANNELS 3 Xrotation Yrotation Zrotation
									JOINT newVegas:RightHandThumb2
									{
										OFFSET -5.480453 -3.164139 3.164143
										CHANNELS 3 Xrotation Yrotation Zrotation
										JOINT newVegas:RightHandThumb3
										{
											OFFSET -5.159721 -2.978973 2.978967
											CHANNELS 3 Xrotation Yrotation Zrotation
											End Site
											{
												OFFSET -2.494507 5.926697 1.738678
											}
										}
									}
								}
								JOINT newVegas:RightHandIndex1
								{
									OFFSET -18.578728 -0.527832 5.208049
									CHANNELS 3 Xrotation Yrotation Zrotation
									JOINT newVegas:RightHandIndex2
									{
										OFFSET -3.192009 0.000000 0.000000
										CHANNELS 3 Xrotation Yrotation Zrotation
										JOINT newVegas:RightHandIndex3
										{
											OFFSET -3.835129 0.000000 0.000000
											CHANNELS 3 Xrotation Yrotation Zrotation
											End Site
											{
												OFFSET 0.034599 3.816971 0.371180
											}
										}
									}
								}
								JOINT newVegas:RightHandMiddle1
								{
									OFFSET -18.476105 0.000000 0.000000
									CHANNELS 3 Xrotation Yrotation Zrotation
									JOINT newVegas:RightHandMiddle2
									{
										OFFSET -3.324875 0.000000 0.000000
										CHANNELS 3 Xrotation Yrotation Zrotation
										JOINT newVegas:RightHandMiddle3
										{
											OFFSET -4.596550 0.000000 0.000000
											CHANNELS 3 Xrotation Yrotation Zrotation
											End Site
											{
												OFFSET -0.057701 4.578827 0.399218
											}
										}
									}
								}
								JOINT newVegas:RightHandRing1
								{
									OFFSET -17.732719 0.121887 -4.201567
									CHANNELS 3 Xrotation Yrotation Zrotation
									JOINT newVegas:RightHandRing2
									{
										OFFSET -2.733170 0.000000 0.000000
										CHANNELS 3 Xrotation Yrotation Zrotation
										JOINT newVegas:RightHandRing3
										{
											OFFSET -3.178268 0.000000 0.000000
											CHANNELS 3 Xrotation Yrotation Zrotation
											End Site
											{
												OFFSET -0.119102 3.170624 0.185394
											}
										}
									}
								}
								JOINT newVegas:RightHandPinky1
								{
									OFFSET -15.989624 -0.606689 -7.535461
									CHANNELS 3 Xrotation Yrotation Zrotation
									JOINT newVegas:RightHandPinky2
									{
										OFFSET -2.538986 0.000000 0.000000
										CHANNELS 3 Xrotation Yrotation Zrotation
										JOINT newVegas:RightHandPinky3
										{
											OFFSET -2.593102 0.000000 0.000000
											CHANNELS 3 Xrotation Yrotation Zrotation
											End Site
											{
												OFFSET 0.150902 2.584198 0.152708
											}
										}
									}
								}
							}
							JOINT newVegas:Right_CapeC
							{
								OFFSET -15.715958 -8.608795 -6.935905
								CHANNELS 3 Xrotation Yrotation Zrotation
								JOINT newVegas:Right_CapeC1
								{
									OFFSET 0.000000 -8.688499 0.000000
									CHANNELS 3 Xrotation Yrotation Zrotation
									End Site
									{
										OFFSET 0.000000 8.688499 0.000000
									}
								}
							}
							JOINT newVegas:Right_Sleeve
							{
								OFFSET -0.267448 -0.649994 0.577675
								CHANNELS 3 Xrotation Yrotation Zrotation
								End Site
								{
									OFFSET 0.000000 15.991302 0.000000
								}
							}
						}
						JOINT newVegas:Right_CapeA
						{
							OFFSET -5.115540 -8.608795 -10.395824
							CHANNELS 3 Xrotation Yrotation Zrotation
							JOINT newVegas:Right_CapeA1
							{
								OFFSET 0.000000 -8.688499 0.000000
								CHANNELS 3 Xrotation Yrotation Zrotation
								End Site
								{
									OFFSET 0.000000 8.688499 0.000000
								}
							}
						}
						JOINT newVegas:Right_CapeB
						{
							OFFSET -26.118187 -8.608795 -7.079266
							CHANNELS 3 Xrotation Yrotation Zrotation
							JOINT newVegas:Right_CapeB1
							{
								OFFSET 0.000000 -8.688499 0.000000
								CHANNELS 3 Xrotation Yrotation Zrotation
								End Site
								{
									OFFSET 0.000000 8.688499 0.000000
								}
							}
						}
					}
				}
				JOINT newVegas:Left_Collar
				{
					OFFSET 18.625099 8.655502 8.828100
					CHANNELS 3 Xrotation Yrotation Zrotation
					JOINT newVegas:Left_Collar1
					{
						OFFSET 14.783401 10.540405 -1.259500
						CHANNELS 3 Xrotation Yrotation Zrotation
						End Site
						{
							OFFSET 0.000000 18.199875 0.000000
						}
					}
				}
				JOINT newVegas:Collar_Back
				{
					OFFSET 0.000000 15.630707 -20.132601
					CHANNELS 3 Xrotation Yrotation Zrotation
					End Site
					{
						OFFSET 0.000000 22.523010 0.000000
					}
				}
				JOINT newVegas:Left_Peck
				{
					OFFSET 17.239599 -5.132599 25.482599
					CHANNELS 3 Xrotation Yrotation Zrotation
					End Site
					{
						OFFSET 0.000000 22.523010 0.000000
					}
				}
				JOINT newVegas:Right_Peck
				{
					OFFSET -17.239599 -5.132202 25.482599
					CHANNELS 3 Xrotation Yrotation Zrotation
					End Site
					{
						OFFSET 0.000000 22.523010 0.000000
					}
				}
				JOINT newVegas:Right_Collar
				{
					OFFSET -18.625099 8.655792 8.828100
					CHANNELS 3 Xrotation Yrotation Zrotation
					JOINT newVegas:Right_Collar1
					{
						OFFSET -14.783401 10.539993 -1.259500
						CHANNELS 3 Xrotation Yrotation Zrotation
						End Site
						{
							OFFSET 0.000000 18.199631 0.000000
						}
					}
				}
			}
		}
		JOINT newVegas:Belly
		{
			OFFSET 0.000000 -6.540398 9.014299
			CHANNELS 3 Xrotation Yrotation Zrotation
			End Site
			{
				OFFSET 0.000000 11.566666 0.000000
			}
		}
	}
	JOINT newVegas:ElvisFacialAnim_Joint
	{
		OFFSET 1.000000 -95.330101 -8.825800
		CHANNELS 3 Xrotation Yrotation Zrotation
		End Site
		{
			OFFSET 0.000000 35.315800 0.000000
		}
	}
}
MOTION
Frames: 4
Frame Time: 0.033333
5.025429 69.266190 4.057659 -27.730855 7.593783 16.941892 -0.000001 0.000000 0.000001 -7.619743 11.317051 21.081374 91.337852 -9.318180 -1.820427 2.878134 -1.687908 -22.098257 -0.000000 -0.000000 -0.000002 -0.000004 -0.000001 -0.000001 -45.788089 -10.164246 11.526885 35.216787 1.217584 0.875043 47.863452 -9.141001 -23.138371 0.000001 0.000003 -0.000000 -0.000000 0.000001 0.000000 20.056359 -10.582839 4.566163 1.361567 -2.848195 -0.144739 1.380798 -2.822179 -0.114129 1.392113 0.770348 -0.087952 1.392119 0.770347 -0.087948 0.000000 0.000000 0.000000 1.392120 0.770364 -0.087962 1.392176 0.770311 -0.087941 0.000000 0.000000 -0.000001 0.000000 0.000000 0.000000 0.821067 -3.691072 4.575247 29.787230 12.015542 -12.825471 -0.000007 -44.662272 -0.000002 25.368393 -4.474856 -31.948934 4.972941 -0.919244 4.455778 7.416892 13.560100 3.772098 -0.000000 -0.000006 -0.000007 0.332628 -2.971050 -1.456184 0.830595 3.008802 -30.858293 0.000000 -0.000001 -0.000003 -0.689170 0.189953 -14.656421 0.595563 2.575507 -26.036324 -0.000002 0.000000 -0.000001 0.930535 5.734132 -20.414573 0.491139 2.349926 -23.606372 0.000001 0.000003 -0.000001 2.244610 16.205466 -22.664084 0.579237 2.541851 -25.670854 0.000001 -0.000003 -0.000001 0.000001 -0.000001 0.000000 0.000001 -0.000001 0.000000 0.000000 -0.000001 0.000000 -0.000001 0.000000 0.000000 -0.000000 0.000000 0.000000 -0.000001 0.000000 0.000000 -0.000000 -0.000000 0.000000 -1.714895 -9.899178 -0.739513 25.814890 -24.343619 19.738815 0.000005 41.661770 0.000002 14.434836 15.700720 12.176879 3.881843 2.652156 -3.468635 7.802560 -15.416794 -4.481860 0.000000 -0.000003 0.000001 0.387318 3.131521 0.644110 0.662458 -2.396003 30.906626 -0.000000 -0.000001 0.000001 -0.709930 0.247545 13.910251 0.475069 -2.051022 26.079657 -0.000000 0.000001 0.000000 0.807598 -5.199867 19.769400 0.391798 -1.871431 23.646685 -0.000002 0.000002 0.000001 2.565772 -16.612605 36.141939 0.462050 -2.024242 25.713731 0.000001 0.000003 0.000001 -0.000001 0.000001 -0.000001 -0.000001 0.000000 0.000001 -0.000001 0.000000 -0.000001 0.000001 -0.000001 -0.000000 0.000001 0.000000 -0.000002 0.000001 -0.000001 -0.000000 0.000001 -0.000000 -0.000000 0.000000 0.000000 -0.000001 0.000000 0.000000 -0.000001 0.000000 0.000000 -0.000001 0.000000 0.000000 -0.000001 0.000000 0.000000 -0.000001 0.000000 0.000000 -0.000001 0.000000 0.000000 -0.000001 -0.000000 -0.000000 -0.000002 -0.000001 0.000000 0.000001 
2.538527 72.839645 2.144180 -26.273212 6.127281 15.464870 0.000001 0.000001 -0.000000 -12.642362 11.546964 16.887947 92.044162 -2.309270 1.967241 -18.343745 -6.003271 -15.752170 0.000001 0.000000 0.000000 -0.000000 0.000002 -0.000002 -40.709160 -7.054068 12.387338 26.890610 -1.774705 -0.499596 47.260958 -3.644013 -16.285078 0.000000 0.000000 0.000000 0.000003 0.000001 0.000001 22.710145 -9.648638 3.230545 1.759443 -2.575886 -0.308177 1.779038 -2.538289 -0.283788 1.008194 0.481775 -0.200971 1.008221 0.481776 -0.200990 0.000000 -0.000000 -0.000000 1.008113 0.481773 -0.200980 1.008332 0.481767 -0.200976 0.000000 0.000000 0.000001 0.000000 -0.000000 -0.000000 3.490150 -8.533005 2.315179 26.677807 5.795213 -20.540851 0.000001 -45.278977 0.000001 16.952333 -6.213674 -27.017997 4.861700 -1.503715 4.663617 7.416910 13.560109 3.772091 -0.000000 0.000002 -0.000004 0.414831 -3.191719 -1.335798 0.762808 2.892519 -29.541712 0.000000 0.000005 0.000002 -0.669674 0.131351 -14.150078 0.558096 2.497421 -25.189613 -0.000004 0.000001 -0.000000 0.889000 5.672056 -19.703214 0.469665 2.300251 -23.077672 0.000003 -0.000001 -0.000001 2.268725 16.201579 -22.136886 0.537950 2.454155 -24.723292 -0.000003 -0.000005 0.000003 0.000001 0.000002 0.000001 0.000001 0.000002 0.000001 -0.000000 0.000002 0.000001 0.000003 -0.000001 0.000001 0.000003 -0.000001 0.000000 0.000003 -0.000001 0.000001 0.000002 -0.000001 0.000000 0.640089 -3.275485 5.257251 20.407552 -11.358930 25.469132 -0.000009 35.072974 0.000001 10.037725 18.116443 10.032753 5.068306 2.837801 -1.156560 8.077040 -18.974151 -4.813094 -0.000001 -0.000003 0.000001 0.494873 2.584509 7.885546 0.799408 -2.610975 34.041246 0.000002 0.000002 -0.000000 -0.983365 -0.565236 21.710899 0.556657 -2.209830 28.274190 0.000000 -0.000001 -0.000001 1.126870 -5.577181 25.734927 0.480998 -2.063082 26.244665 -0.000001 0.000001 -0.000000 2.681447 -16.776017 38.747803 0.477802 -2.056568 26.155743 0.000001 0.000002 -0.000001 0.000000 -0.000000 -0.000002 -0.000000 -0.000001 -0.000002 0.000000 -0.000000 -0.000002 0.000001 0.000000 -0.000000 0.000000 0.000000 -0.000002 0.000001 0.000000 -0.000000 0.000001 -0.000000 -0.000000 0.000000 -0.000000 0.000001 0.000000 -0.000000 0.000001 0.000000 -0.000000 0.000001 0.000000 -0.000000 0.000001 0.000000 -0.000000 0.000001 0.000000 -0.000000 0.000001 0.000000 -0.000000 0.000001 -0.000000 -0.000000 0.000000 0.000001 0.000001 -0.000000 
0.472975 75.792587 -0.070366 -25.315242 4.469935 13.967174 -0.000001 0.000000 0.000001 -16.209664 10.007159 14.781738 84.821626 -0.282540 4.834772 -22.195080 -9.934080 -15.770721 0.000001 0.000001 0.000001 0.000003 0.000001 -0.000001 -42.175322 -3.893537 9.677108 33.557645 -7.769228 -2.341769 40.528963 13.088981 -2.594590 -0.000000 -0.000000 -0.000001 0.000000 0.000002 -0.000003 25.874568 -8.992443 2.004739 2.224971 -2.252524 -0.563522 2.245706 -2.191825 -0.550902 0.563295 0.186583 -0.397289 0.563311 0.186581 -0.397275 0.000001 0.000000 0.000000 0.563372 0.186587 -0.397287 0.563224 0.186577 -0.397281 0.000001 0.000000 0.000000 0.000001 0.000000 0.000000 5.294241 -14.044882 1.459515 21.950992 -0.842090 -28.142475 0.000004 -45.944022 0.000008 8.096311 -8.055572 -22.875236 4.748967 -2.092884 4.872772 7.416893 13.560086 3.772086 0.000002 0.000000 -0.000001 0.498789 -3.414149 -1.213603 0.696674 2.772704 -28.203395 0.000002 0.000001 0.000001 -0.649482 0.072408 -13.638817 0.521429 2.418001 -24.334849 -0.000000 0.000001 -0.000000 0.847834 5.608895 -18.985132 0.448492 2.249926 -22.543934 -0.000001 0.000001 0.000004 2.293693 16.199026 -21.604969 0.497742 2.364987 -23.767170 -0.000000 0.000000 -0.000000 0.000002 -0.000001 -0.000002 0.000002 -0.000001 -0.000002 0.000002 -0.000001 -0.000002 0.000003 0.000001 0.000001 0.000003 0.000000 0.000001 0.000003 0.000001 0.000001 0.000002 -0.000000 0.000002 1.751082 3.722096 10.557277 16.052336 1.054035 33.289789 0.000001 28.481073 0.000011 5.764313 20.929315 8.325583 6.316876 3.040443 1.226529 8.347241 -22.695469 -5.148181 0.000001 0.000001 -0.000000 0.670825 2.125621 15.481324 0.960658 -2.834815 37.434532 -0.000001 0.000003 0.000003 -1.144706 -1.443604 29.917035 0.649499 -2.374235 30.595440 -0.000001 0.000001 0.000001 1.503528 -5.938387 32.024059 0.584532 -2.260832 28.988590 0.000002 0.000002 0.000004 2.817889 -16.969345 41.513535 0.495086 -2.091395 26.633424 0.000004 0.000003 -0.000001 0.000000 0.000001 -0.000000 -0.000001 0.000000 -0.000002 0.000000 0.000001 -0.000000 0.000002 0.000001 -0.000000 0.000002 0.000000 -0.000000 0.000002 0.000001 -0.000000 0.000002 -0.000000 -0.000000 0.000000 0.000000 0.000000 0.000000 0.000000 0.000000 0.000000 0.000000 0.000000 0.000000 0.000000 0.000000 0.000000 0.000000 0.000000 0.000000 0.000000 0.000000 0.000000 0.000000 0.000000 -0.000000 -0.000000 -0.000001 -0.000001 0.000000 0.000001 
-1.014418 77.549454 -3.256016 -24.642831 2.711293 11.990427 0.000001 -0.000000 0.000000 -15.257594 10.009228 12.687000 77.588278 1.573312 7.187854 -31.969141 -12.112950 -14.589112 0.000000 0.000000 -0.000000 0.000003 -0.000003 0.000001 -44.991993 -2.733132 12.229103 51.458628 -9.695080 -3.730634 25.346530 18.675253 2.198469 -0.000000 -0.000002 0.000001 -0.000001 0.000001 -0.000000 29.371238 -8.281998 1.285054 2.726969 -1.903520 -0.864946 2.749294 -1.813954 -0.866892 0.099456 -0.112891 -0.290915 0.099450 -0.112890 -0.290911 0.000000 -0.000000 -0.000001 0.099516 -0.112890 -0.290914 0.099383 -0.112890 -0.290912 0.000001 -0.000000 -0.000000 0.000000 -0.000000 -0.000000 5.866706 -17.495926 -0.632604 15.380374 -8.402163 -32.153665 -0.000010 -47.779072 -0.000017 -1.274125 -9.214540 -17.410736 4.635057 -2.685186 5.082616 7.416902 13.560111 3.772102 0.000001 -0.000003 -0.000001 0.584337 -3.637795 -1.089943 0.632639 2.649956 -26.849579 0.000000 -0.000000 -0.000000 -0.628630 0.013214 -13.124044 0.485724 2.337538 -23.474315 0.000001 0.000000 -0.000000 0.807184 5.544783 -18.262256 0.427640 2.199028 -22.006550 -0.000003 0.000001 0.000002 2.319145 16.197889 -21.069674 0.458794 2.274544 -22.804981 -0.000001 -0.000002 -0.000002 -0.000002 0.000000 0.000003 -0.000002 0.000000 0.000003 -0.000002 0.000001 0.000003 0.000001 -0.000001 -0.000002 0.000001 -0.000002 -0.000003 0.000001 -0.000001 -0.000002 -0.000001 -0.000001 -0.000001 1.735605 9.548269 13.962402 10.591946 13.498359 39.604770 -0.000003 23.682752 0.000019 1.535312 23.736565 7.168043 7.277853 3.435339 3.195644 8.547885 -25.615969 -5.404354 0.000000 -0.000003 0.000001 0.813814 1.890836 21.368925 1.068370 -2.970078 39.561508 -0.000003 -0.000001 0.000000 -1.162571 -2.136993 36.123726 0.721709 -2.492210 32.296013 -0.000001 -0.000001 0.000002 1.807183 -6.176921 36.754665 0.667150 -2.403796 31.018454 -0.000001 0.000001 0.000002 2.923762 -17.125634 43.513540 0.506175 -2.113341 26.935722 -0.000002 -0.000002 0.000000 -0.000000 0.000000 0.000001 -0.000000 0.000000 0.000002 -0.000000 0.000000 0.000002 -0.000001 0.000001 0.000001 -0.000001 0.000001 0.000003 -0.000001 0.000001 0.000001 -0.000001 0.000001 0.000003 0.000001 0.000000 0.000000 0.000001 0.000000 0.000000 0.000001 0.000000 0.000000 0.000001 0.000000 0.000000 0.000001 0.000000 0.000000 0.000001 0.000000 0.000000 0.000001 0.000000 0.000000 0.000000 -0.000000 -0.000000 0.000001 -0.000000 0.000000 
